M48
; DRILL file {KiCad (6.0.5)} date Sun Oct 16 17:39:35 2022
; FORMAT={-:-/ absolute / inch / decimal}
; #@! TF.CreationDate,2022-10-16T17:39:35+02:00
; #@! TF.GenerationSoftware,Kicad,Pcbnew,(6.0.5)
; #@! TF.FileFunction,Plated,1,2,PTH
FMAT,2
INCH
; #@! TA.AperFunction,Plated,PTH,ComponentDrill
T1C0.0394
%
G90
G05
T1
X2.5752Y-2.84
X2.5752Y-2.94
X2.5752Y-3.04
X2.5752Y-3.14
X2.5752Y-3.24
X2.5752Y-3.34
X2.5752Y-3.44
X2.5752Y-3.54
X2.5752Y-3.64
X2.5752Y-3.74
X2.5752Y-3.84
X2.5752Y-3.94
X2.5752Y-4.04
X2.5752Y-4.14
X2.5752Y-4.24
X2.5752Y-4.34
X2.5752Y-4.44
X2.5752Y-4.54
X2.5752Y-4.64
X2.5752Y-4.74
X2.5752Y-4.84
X2.5752Y-4.94
X2.5752Y-5.04
X2.5752Y-5.14
X2.5752Y-5.24
X2.5752Y-5.34
X2.5752Y-5.44
X2.5752Y-5.54
X2.5752Y-5.64
X2.5752Y-5.74
X2.5752Y-5.84
X2.5752Y-5.94
X2.6752Y-2.84
X2.6752Y-2.94
X2.6752Y-3.04
X2.6752Y-3.14
X2.6752Y-3.24
X2.6752Y-3.34
X2.6752Y-3.44
X2.6752Y-3.54
X2.6752Y-3.64
X2.6752Y-3.74
X2.6752Y-3.84
X2.6752Y-3.94
X2.6752Y-4.04
X2.6752Y-4.14
X2.6752Y-4.24
X2.6752Y-4.34
X2.6752Y-4.44
X2.6752Y-4.54
X2.6752Y-4.64
X2.6752Y-4.74
X2.6752Y-4.84
X2.6752Y-4.94
X2.6752Y-5.04
X2.6752Y-5.14
X2.6752Y-5.24
X2.6752Y-5.34
X2.6752Y-5.44
X2.6752Y-5.54
X2.6752Y-5.64
X2.6752Y-5.74
X2.6752Y-5.84
X2.6752Y-5.94
X7.5948Y-2.84
X7.5948Y-2.94
X7.5948Y-3.04
X7.5948Y-3.14
X7.5948Y-3.24
X7.5948Y-3.34
X7.5948Y-3.44
X7.5948Y-3.54
X7.5948Y-3.64
X7.5948Y-3.74
X7.5948Y-3.84
X7.5948Y-3.94
X7.5948Y-4.04
X7.5948Y-4.14
X7.5948Y-4.24
X7.5948Y-4.34
X7.5948Y-4.44
X7.5948Y-4.54
X7.5948Y-4.64
X7.5948Y-4.74
X7.5948Y-4.84
X7.5948Y-4.94
X7.5948Y-5.04
X7.5948Y-5.14
X7.5948Y-5.24
X7.5948Y-5.34
X7.5948Y-5.44
X7.5948Y-5.54
X7.5948Y-5.64
X7.5948Y-5.74
X7.5948Y-5.84
X7.5948Y-5.94
X7.6948Y-2.84
X7.6948Y-2.94
X7.6948Y-3.04
X7.6948Y-3.14
X7.6948Y-3.24
X7.6948Y-3.34
X7.6948Y-3.44
X7.6948Y-3.54
X7.6948Y-3.64
X7.6948Y-3.74
X7.6948Y-3.84
X7.6948Y-3.94
X7.6948Y-4.04
X7.6948Y-4.14
X7.6948Y-4.24
X7.6948Y-4.34
X7.6948Y-4.44
X7.6948Y-4.54
X7.6948Y-4.64
X7.6948Y-4.74
X7.6948Y-4.84
X7.6948Y-4.94
X7.6948Y-5.04
X7.6948Y-5.14
X7.6948Y-5.24
X7.6948Y-5.34
X7.6948Y-5.44
X7.6948Y-5.54
X7.6948Y-5.64
X7.6948Y-5.74
X7.6948Y-5.84
X7.6948Y-5.94
T0
M30
