%TF.GenerationSoftware,KiCad,Pcbnew,(6.0.5)*%
%TF.CreationDate,2022-10-03T17:09:01+02:00*%
%TF.ProjectId,riser,72697365-722e-46b6-9963-61645f706362,rev?*%
%TF.SameCoordinates,Original*%
%TF.FileFunction,Legend,Top*%
%TF.FilePolarity,Positive*%
%FSLAX46Y46*%
G04 Gerber Fmt 4.6, Leading zero omitted, Abs format (unit mm)*
G04 Created by KiCad (PCBNEW (6.0.5)) date 2022-10-03 17:09:01*
%MOMM*%
%LPD*%
G01*
G04 APERTURE LIST*
%ADD10C,0.150000*%
%ADD11C,0.300000*%
%ADD12C,0.120000*%
G04 APERTURE END LIST*
D10*
X158647714Y-144844761D02*
X158790571Y-144892380D01*
X159028666Y-144892380D01*
X159123904Y-144844761D01*
X159171523Y-144797142D01*
X159219142Y-144701904D01*
X159219142Y-144606666D01*
X159171523Y-144511428D01*
X159123904Y-144463809D01*
X159028666Y-144416190D01*
X158838190Y-144368571D01*
X158742952Y-144320952D01*
X158695333Y-144273333D01*
X158647714Y-144178095D01*
X158647714Y-144082857D01*
X158695333Y-143987619D01*
X158742952Y-143940000D01*
X158838190Y-143892380D01*
X159076285Y-143892380D01*
X159219142Y-143940000D01*
X159647714Y-144892380D02*
X159647714Y-143892380D01*
X159981047Y-144606666D01*
X160314380Y-143892380D01*
X160314380Y-144892380D01*
X160790571Y-144892380D02*
X160790571Y-143892380D01*
X161933428Y-144987619D02*
X161838190Y-144940000D01*
X161742952Y-144844761D01*
X161600095Y-144701904D01*
X161504857Y-144654285D01*
X161409619Y-144654285D01*
X161457238Y-144892380D02*
X161362000Y-144844761D01*
X161266761Y-144749523D01*
X161219142Y-144559047D01*
X161219142Y-144225714D01*
X161266761Y-144035238D01*
X161362000Y-143940000D01*
X161457238Y-143892380D01*
X161647714Y-143892380D01*
X161742952Y-143940000D01*
X161838190Y-144035238D01*
X161885809Y-144225714D01*
X161885809Y-144559047D01*
X161838190Y-144749523D01*
X161742952Y-144844761D01*
X161647714Y-144892380D01*
X161457238Y-144892380D01*
X163504857Y-144844761D02*
X163409619Y-144892380D01*
X163219142Y-144892380D01*
X163123904Y-144844761D01*
X163076285Y-144797142D01*
X163028666Y-144701904D01*
X163028666Y-144416190D01*
X163076285Y-144320952D01*
X163123904Y-144273333D01*
X163219142Y-144225714D01*
X163409619Y-144225714D01*
X163504857Y-144273333D01*
X164362000Y-144892380D02*
X164362000Y-144368571D01*
X164314380Y-144273333D01*
X164219142Y-144225714D01*
X164028666Y-144225714D01*
X163933428Y-144273333D01*
X164362000Y-144844761D02*
X164266761Y-144892380D01*
X164028666Y-144892380D01*
X163933428Y-144844761D01*
X163885809Y-144749523D01*
X163885809Y-144654285D01*
X163933428Y-144559047D01*
X164028666Y-144511428D01*
X164266761Y-144511428D01*
X164362000Y-144463809D01*
X164838190Y-144892380D02*
X164838190Y-144225714D01*
X164838190Y-144416190D02*
X164885809Y-144320952D01*
X164933428Y-144273333D01*
X165028666Y-144225714D01*
X165123904Y-144225714D01*
X165885809Y-144892380D02*
X165885809Y-143892380D01*
X165885809Y-144844761D02*
X165790571Y-144892380D01*
X165600095Y-144892380D01*
X165504857Y-144844761D01*
X165457238Y-144797142D01*
X165409619Y-144701904D01*
X165409619Y-144416190D01*
X165457238Y-144320952D01*
X165504857Y-144273333D01*
X165600095Y-144225714D01*
X165790571Y-144225714D01*
X165885809Y-144273333D01*
X167504857Y-144844761D02*
X167409619Y-144892380D01*
X167219142Y-144892380D01*
X167123904Y-144844761D01*
X167076285Y-144749523D01*
X167076285Y-144368571D01*
X167123904Y-144273333D01*
X167219142Y-144225714D01*
X167409619Y-144225714D01*
X167504857Y-144273333D01*
X167552476Y-144368571D01*
X167552476Y-144463809D01*
X167076285Y-144559047D01*
X167885809Y-144892380D02*
X168409619Y-144225714D01*
X167885809Y-144225714D02*
X168409619Y-144892380D01*
X168647714Y-144225714D02*
X169028666Y-144225714D01*
X168790571Y-143892380D02*
X168790571Y-144749523D01*
X168838190Y-144844761D01*
X168933428Y-144892380D01*
X169028666Y-144892380D01*
X169742952Y-144844761D02*
X169647714Y-144892380D01*
X169457238Y-144892380D01*
X169362000Y-144844761D01*
X169314380Y-144749523D01*
X169314380Y-144368571D01*
X169362000Y-144273333D01*
X169457238Y-144225714D01*
X169647714Y-144225714D01*
X169742952Y-144273333D01*
X169790571Y-144368571D01*
X169790571Y-144463809D01*
X169314380Y-144559047D01*
X170219142Y-144225714D02*
X170219142Y-144892380D01*
X170219142Y-144320952D02*
X170266761Y-144273333D01*
X170362000Y-144225714D01*
X170504857Y-144225714D01*
X170600095Y-144273333D01*
X170647714Y-144368571D01*
X170647714Y-144892380D01*
X171552476Y-144892380D02*
X171552476Y-143892380D01*
X171552476Y-144844761D02*
X171457238Y-144892380D01*
X171266761Y-144892380D01*
X171171523Y-144844761D01*
X171123904Y-144797142D01*
X171076285Y-144701904D01*
X171076285Y-144416190D01*
X171123904Y-144320952D01*
X171171523Y-144273333D01*
X171266761Y-144225714D01*
X171457238Y-144225714D01*
X171552476Y-144273333D01*
X172409619Y-144844761D02*
X172314380Y-144892380D01*
X172123904Y-144892380D01*
X172028666Y-144844761D01*
X171981047Y-144749523D01*
X171981047Y-144368571D01*
X172028666Y-144273333D01*
X172123904Y-144225714D01*
X172314380Y-144225714D01*
X172409619Y-144273333D01*
X172457238Y-144368571D01*
X172457238Y-144463809D01*
X171981047Y-144559047D01*
X172885809Y-144892380D02*
X172885809Y-144225714D01*
X172885809Y-144416190D02*
X172933428Y-144320952D01*
X172981047Y-144273333D01*
X173076285Y-144225714D01*
X173171523Y-144225714D01*
X161076285Y-146502380D02*
X161076285Y-145835714D01*
X161076285Y-146026190D02*
X161123904Y-145930952D01*
X161171523Y-145883333D01*
X161266761Y-145835714D01*
X161362000Y-145835714D01*
X162076285Y-146454761D02*
X161981047Y-146502380D01*
X161790571Y-146502380D01*
X161695333Y-146454761D01*
X161647714Y-146359523D01*
X161647714Y-145978571D01*
X161695333Y-145883333D01*
X161790571Y-145835714D01*
X161981047Y-145835714D01*
X162076285Y-145883333D01*
X162123904Y-145978571D01*
X162123904Y-146073809D01*
X161647714Y-146169047D01*
X162457238Y-145835714D02*
X162695333Y-146502380D01*
X162933428Y-145835714D01*
X163314380Y-146407142D02*
X163362000Y-146454761D01*
X163314380Y-146502380D01*
X163266761Y-146454761D01*
X163314380Y-146407142D01*
X163314380Y-146502380D01*
X165076285Y-146502380D02*
X164504857Y-146502380D01*
X164790571Y-146502380D02*
X164790571Y-145502380D01*
X164695333Y-145645238D01*
X164600095Y-145740476D01*
X164504857Y-145788095D01*
X166457238Y-145502380D02*
X166552476Y-145502380D01*
X166647714Y-145550000D01*
X166695333Y-145597619D01*
X166742952Y-145692857D01*
X166790571Y-145883333D01*
X166790571Y-146121428D01*
X166742952Y-146311904D01*
X166695333Y-146407142D01*
X166647714Y-146454761D01*
X166552476Y-146502380D01*
X166457238Y-146502380D01*
X166362000Y-146454761D01*
X166314380Y-146407142D01*
X166266761Y-146311904D01*
X166219142Y-146121428D01*
X166219142Y-145883333D01*
X166266761Y-145692857D01*
X166314380Y-145597619D01*
X166362000Y-145550000D01*
X166457238Y-145502380D01*
X167266761Y-146502380D02*
X167457238Y-146502380D01*
X167552476Y-146454761D01*
X167600095Y-146407142D01*
X167695333Y-146264285D01*
X167742952Y-146073809D01*
X167742952Y-145692857D01*
X167695333Y-145597619D01*
X167647714Y-145550000D01*
X167552476Y-145502380D01*
X167362000Y-145502380D01*
X167266761Y-145550000D01*
X167219142Y-145597619D01*
X167171523Y-145692857D01*
X167171523Y-145930952D01*
X167219142Y-146026190D01*
X167266761Y-146073809D01*
X167362000Y-146121428D01*
X167552476Y-146121428D01*
X167647714Y-146073809D01*
X167695333Y-146026190D01*
X167742952Y-145930952D01*
X168885809Y-145454761D02*
X168028666Y-146740476D01*
X169171523Y-145597619D02*
X169219142Y-145550000D01*
X169314380Y-145502380D01*
X169552476Y-145502380D01*
X169647714Y-145550000D01*
X169695333Y-145597619D01*
X169742952Y-145692857D01*
X169742952Y-145788095D01*
X169695333Y-145930952D01*
X169123904Y-146502380D01*
X169742952Y-146502380D01*
X170123904Y-145597619D02*
X170171523Y-145550000D01*
X170266761Y-145502380D01*
X170504857Y-145502380D01*
X170600095Y-145550000D01*
X170647714Y-145597619D01*
X170695333Y-145692857D01*
X170695333Y-145788095D01*
X170647714Y-145930952D01*
X170076285Y-146502380D01*
X170695333Y-146502380D01*
X162028666Y-147636190D02*
X161981047Y-147588571D01*
X161885809Y-147540952D01*
X161790571Y-147540952D01*
X161695333Y-147588571D01*
X161647714Y-147636190D01*
X161600095Y-147731428D01*
X161600095Y-147826666D01*
X161647714Y-147921904D01*
X161695333Y-147969523D01*
X161790571Y-148017142D01*
X161885809Y-148017142D01*
X161981047Y-147969523D01*
X162028666Y-147921904D01*
X162028666Y-147540952D02*
X162028666Y-147921904D01*
X162076285Y-147969523D01*
X162123904Y-147969523D01*
X162219142Y-147921904D01*
X162266761Y-147826666D01*
X162266761Y-147588571D01*
X162171523Y-147445714D01*
X162028666Y-147350476D01*
X161838190Y-147302857D01*
X161647714Y-147350476D01*
X161504857Y-147445714D01*
X161409619Y-147588571D01*
X161362000Y-147779047D01*
X161409619Y-147969523D01*
X161504857Y-148112380D01*
X161647714Y-148207619D01*
X161838190Y-148255238D01*
X162028666Y-148207619D01*
X162171523Y-148112380D01*
X163123904Y-147445714D02*
X163123904Y-148445714D01*
X163123904Y-148064761D02*
X163028666Y-148112380D01*
X162838190Y-148112380D01*
X162742952Y-148064761D01*
X162695333Y-148017142D01*
X162647714Y-147921904D01*
X162647714Y-147636190D01*
X162695333Y-147540952D01*
X162742952Y-147493333D01*
X162838190Y-147445714D01*
X163028666Y-147445714D01*
X163123904Y-147493333D01*
X163504857Y-147445714D02*
X163695333Y-148112380D01*
X163885809Y-147636190D01*
X164076285Y-148112380D01*
X164266761Y-147445714D01*
X164552476Y-147112380D02*
X165171523Y-147112380D01*
X164838190Y-147493333D01*
X164981047Y-147493333D01*
X165076285Y-147540952D01*
X165123904Y-147588571D01*
X165171523Y-147683809D01*
X165171523Y-147921904D01*
X165123904Y-148017142D01*
X165076285Y-148064761D01*
X164981047Y-148112380D01*
X164695333Y-148112380D01*
X164600095Y-148064761D01*
X164552476Y-148017142D01*
X165600095Y-148112380D02*
X165600095Y-147445714D01*
X165600095Y-147636190D02*
X165647714Y-147540952D01*
X165695333Y-147493333D01*
X165790571Y-147445714D01*
X165885809Y-147445714D01*
X166076285Y-147445714D02*
X166457238Y-147445714D01*
X166219142Y-147112380D02*
X166219142Y-147969523D01*
X166266761Y-148064761D01*
X166362000Y-148112380D01*
X166457238Y-148112380D01*
X166695333Y-147445714D02*
X167219142Y-147445714D01*
X166695333Y-148112380D01*
X167219142Y-148112380D01*
X168028666Y-147445714D02*
X168028666Y-148112380D01*
X167600095Y-147445714D02*
X167600095Y-147969523D01*
X167647714Y-148064761D01*
X167742952Y-148112380D01*
X167885809Y-148112380D01*
X167981047Y-148064761D01*
X168028666Y-148017142D01*
X168504857Y-148112380D02*
X168504857Y-147445714D01*
X168504857Y-147112380D02*
X168457238Y-147160000D01*
X168504857Y-147207619D01*
X168552476Y-147160000D01*
X168504857Y-147112380D01*
X168504857Y-147207619D01*
X169123904Y-148112380D02*
X169028666Y-148064761D01*
X168981047Y-148017142D01*
X168933428Y-147921904D01*
X168933428Y-147636190D01*
X168981047Y-147540952D01*
X169028666Y-147493333D01*
X169123904Y-147445714D01*
X169266761Y-147445714D01*
X169362000Y-147493333D01*
X169409619Y-147540952D01*
X169457238Y-147636190D01*
X169457238Y-147921904D01*
X169409619Y-148017142D01*
X169362000Y-148064761D01*
X169266761Y-148112380D01*
X169123904Y-148112380D01*
X169885809Y-147445714D02*
X169885809Y-148445714D01*
X169885809Y-147493333D02*
X169981047Y-147445714D01*
X170171523Y-147445714D01*
X170266761Y-147493333D01*
X170314380Y-147540952D01*
X170362000Y-147636190D01*
X170362000Y-147921904D01*
X170314380Y-148017142D01*
X170266761Y-148064761D01*
X170171523Y-148112380D01*
X169981047Y-148112380D01*
X169885809Y-148064761D01*
X198080380Y-126793047D02*
X198794666Y-126793047D01*
X198937523Y-126840666D01*
X199032761Y-126935904D01*
X199080380Y-127078761D01*
X199080380Y-127174000D01*
X199080380Y-125840666D02*
X199080380Y-126316857D01*
X198080380Y-126316857D01*
X198985142Y-124935904D02*
X199032761Y-124983523D01*
X199080380Y-125126380D01*
X199080380Y-125221619D01*
X199032761Y-125364476D01*
X198937523Y-125459714D01*
X198842285Y-125507333D01*
X198651809Y-125554952D01*
X198508952Y-125554952D01*
X198318476Y-125507333D01*
X198223238Y-125459714D01*
X198128000Y-125364476D01*
X198080380Y-125221619D01*
X198080380Y-125126380D01*
X198128000Y-124983523D01*
X198175619Y-124935904D01*
X198080380Y-124221619D02*
X198794666Y-124221619D01*
X198937523Y-124269238D01*
X199032761Y-124364476D01*
X199080380Y-124507333D01*
X199080380Y-124602571D01*
X199080380Y-123269238D02*
X199080380Y-123745428D01*
X198080380Y-123745428D01*
X198985142Y-122364476D02*
X199032761Y-122412095D01*
X199080380Y-122554952D01*
X199080380Y-122650190D01*
X199032761Y-122793047D01*
X198937523Y-122888285D01*
X198842285Y-122935904D01*
X198651809Y-122983523D01*
X198508952Y-122983523D01*
X198318476Y-122935904D01*
X198223238Y-122888285D01*
X198128000Y-122793047D01*
X198080380Y-122650190D01*
X198080380Y-122554952D01*
X198128000Y-122412095D01*
X198175619Y-122364476D01*
X198080380Y-121650190D02*
X198794666Y-121650190D01*
X198937523Y-121697809D01*
X199032761Y-121793047D01*
X199080380Y-121935904D01*
X199080380Y-122031142D01*
X199080380Y-120697809D02*
X199080380Y-121174000D01*
X198080380Y-121174000D01*
X198985142Y-119793047D02*
X199032761Y-119840666D01*
X199080380Y-119983523D01*
X199080380Y-120078761D01*
X199032761Y-120221619D01*
X198937523Y-120316857D01*
X198842285Y-120364476D01*
X198651809Y-120412095D01*
X198508952Y-120412095D01*
X198318476Y-120364476D01*
X198223238Y-120316857D01*
X198128000Y-120221619D01*
X198080380Y-120078761D01*
X198080380Y-119983523D01*
X198128000Y-119840666D01*
X198175619Y-119793047D01*
X198080380Y-119078761D02*
X198794666Y-119078761D01*
X198937523Y-119126380D01*
X199032761Y-119221619D01*
X199080380Y-119364476D01*
X199080380Y-119459714D01*
X199080380Y-118126380D02*
X199080380Y-118602571D01*
X198080380Y-118602571D01*
X198985142Y-117221619D02*
X199032761Y-117269238D01*
X199080380Y-117412095D01*
X199080380Y-117507333D01*
X199032761Y-117650190D01*
X198937523Y-117745428D01*
X198842285Y-117793047D01*
X198651809Y-117840666D01*
X198508952Y-117840666D01*
X198318476Y-117793047D01*
X198223238Y-117745428D01*
X198128000Y-117650190D01*
X198080380Y-117507333D01*
X198080380Y-117412095D01*
X198128000Y-117269238D01*
X198175619Y-117221619D01*
%TO.C,J2*%
X193899380Y-67389333D02*
X194613666Y-67389333D01*
X194756523Y-67436952D01*
X194851761Y-67532190D01*
X194899380Y-67675047D01*
X194899380Y-67770285D01*
X193994619Y-66960761D02*
X193947000Y-66913142D01*
X193899380Y-66817904D01*
X193899380Y-66579809D01*
X193947000Y-66484571D01*
X193994619Y-66436952D01*
X194089857Y-66389333D01*
X194185095Y-66389333D01*
X194327952Y-66436952D01*
X194899380Y-67008380D01*
X194899380Y-66389333D01*
D11*
%TO.C,G\u002A\u002A\u002A*%
X180267428Y-143002000D02*
X180122285Y-142929428D01*
X179904571Y-142929428D01*
X179686857Y-143002000D01*
X179541714Y-143147142D01*
X179469142Y-143292285D01*
X179396571Y-143582571D01*
X179396571Y-143800285D01*
X179469142Y-144090571D01*
X179541714Y-144235714D01*
X179686857Y-144380857D01*
X179904571Y-144453428D01*
X180049714Y-144453428D01*
X180267428Y-144380857D01*
X180340000Y-144308285D01*
X180340000Y-143800285D01*
X180049714Y-143800285D01*
X181210857Y-142929428D02*
X181210857Y-143292285D01*
X180848000Y-143147142D02*
X181210857Y-143292285D01*
X181573714Y-143147142D01*
X180993142Y-143582571D02*
X181210857Y-143292285D01*
X181428571Y-143582571D01*
X182372000Y-142929428D02*
X182372000Y-143292285D01*
X182009142Y-143147142D02*
X182372000Y-143292285D01*
X182734857Y-143147142D01*
X182154285Y-143582571D02*
X182372000Y-143292285D01*
X182589714Y-143582571D01*
X183533142Y-142929428D02*
X183533142Y-143292285D01*
X183170285Y-143147142D02*
X183533142Y-143292285D01*
X183896000Y-143147142D01*
X183315428Y-143582571D02*
X183533142Y-143292285D01*
X183750857Y-143582571D01*
D10*
%TO.C,J1*%
X65863380Y-156289333D02*
X66577666Y-156289333D01*
X66720523Y-156336952D01*
X66815761Y-156432190D01*
X66863380Y-156575047D01*
X66863380Y-156670285D01*
X66863380Y-155289333D02*
X66863380Y-155860761D01*
X66863380Y-155575047D02*
X65863380Y-155575047D01*
X66006238Y-155670285D01*
X66101476Y-155765523D01*
X66149095Y-155860761D01*
D12*
%TO.C,J2*%
X196187000Y-116186000D02*
X196187000Y-116987000D01*
X196187000Y-139046000D02*
X196187000Y-139847000D01*
X196187000Y-131426000D02*
X196187000Y-132227000D01*
X196187000Y-93326000D02*
X196187000Y-94127000D01*
X195187000Y-69766000D02*
X196187000Y-69766000D01*
X195187000Y-153246000D02*
X196187000Y-153246000D01*
X196187000Y-128886000D02*
X196187000Y-129687000D01*
X196187000Y-151746000D02*
X196187000Y-153246000D01*
X195187000Y-64246000D02*
X195187000Y-69766000D01*
X196187000Y-78086000D02*
X196187000Y-78887000D01*
X196187000Y-106026000D02*
X196187000Y-106827000D01*
X196187000Y-100946000D02*
X196187000Y-101747000D01*
X196187000Y-144126000D02*
X196187000Y-144927000D01*
X196187000Y-85706000D02*
X196187000Y-86507000D01*
X196187000Y-69765000D02*
X196187000Y-71041000D01*
X196187000Y-149206000D02*
X196187000Y-150007000D01*
X196187000Y-126346000D02*
X196187000Y-127147000D01*
X196187000Y-88246000D02*
X196187000Y-89047000D01*
X196187000Y-123806000D02*
X196187000Y-124607000D01*
X200747000Y-64246000D02*
X195187000Y-64246000D01*
X195747000Y-70441000D02*
X195147000Y-70441000D01*
X196187000Y-111106000D02*
X196187000Y-111907000D01*
X196187000Y-98406000D02*
X196187000Y-99207000D01*
X196187000Y-121266000D02*
X196187000Y-122067000D01*
X196187000Y-113646000D02*
X196187000Y-114447000D01*
X196187000Y-108566000D02*
X196187000Y-109367000D01*
X200747000Y-158766000D02*
X195187000Y-158766000D01*
X196187000Y-80626000D02*
X196187000Y-81427000D01*
X195187000Y-158766000D02*
X195187000Y-153246000D01*
X196187000Y-136506000D02*
X196187000Y-137307000D01*
X196187000Y-95866000D02*
X196187000Y-96667000D01*
X195147000Y-70441000D02*
X195447000Y-71041000D01*
X196187000Y-103486000D02*
X196187000Y-104287000D01*
X196187000Y-141586000D02*
X196187000Y-142387000D01*
X195447000Y-71041000D02*
X195747000Y-70441000D01*
X196187000Y-75546000D02*
X196187000Y-76347000D01*
X196187000Y-118726000D02*
X196187000Y-119527000D01*
X196187000Y-146666000D02*
X196187000Y-147467000D01*
X196187000Y-83166000D02*
X196187000Y-83967000D01*
X196187000Y-133966000D02*
X196187000Y-134767000D01*
X196187000Y-73231000D02*
X196187000Y-73807000D01*
X196187000Y-90786000D02*
X196187000Y-91587000D01*
%TO.C,G\u002A\u002A\u002A*%
G36*
X185399060Y-138413768D02*
G01*
X185699896Y-138627807D01*
X185894837Y-138809070D01*
X186366042Y-139272806D01*
X185854036Y-139253570D01*
X185488548Y-139263583D01*
X185248922Y-139343642D01*
X185097695Y-139519083D01*
X184997406Y-139815242D01*
X184992457Y-139836253D01*
X184939455Y-140185574D01*
X184916601Y-140605620D01*
X184922673Y-141040160D01*
X184956447Y-141432964D01*
X185016700Y-141727799D01*
X185034666Y-141777020D01*
X185170797Y-142042782D01*
X185348239Y-142319571D01*
X185380964Y-142363797D01*
X185577968Y-142709942D01*
X185657312Y-143054850D01*
X185614344Y-143358383D01*
X185514827Y-143518600D01*
X185392620Y-143629814D01*
X185335838Y-143642152D01*
X185335333Y-143637125D01*
X185282782Y-143640328D01*
X185151780Y-143739262D01*
X185102500Y-143784454D01*
X184883777Y-143949816D01*
X184662019Y-144056699D01*
X184643064Y-144061909D01*
X184413216Y-144165175D01*
X184270109Y-144279615D01*
X184118495Y-144410147D01*
X184019246Y-144430762D01*
X184004238Y-144339148D01*
X184017585Y-144297914D01*
X184044525Y-144205765D01*
X183992919Y-144228971D01*
X183908271Y-144303228D01*
X183756309Y-144392402D01*
X183546832Y-144463157D01*
X183336189Y-144503844D01*
X183180731Y-144502814D01*
X183133954Y-144463306D01*
X183059083Y-144421949D01*
X182873511Y-144400048D01*
X182816454Y-144399000D01*
X182609670Y-144419292D01*
X182403886Y-144493134D01*
X182162915Y-144639976D01*
X181850571Y-144879269D01*
X181713838Y-144991667D01*
X181530134Y-145130164D01*
X181456675Y-145147081D01*
X181464182Y-145097500D01*
X181494367Y-144996946D01*
X181466945Y-144962056D01*
X181354298Y-144996697D01*
X181128806Y-145104736D01*
X181019901Y-145159699D01*
X180776722Y-145294032D01*
X180643983Y-145417755D01*
X180577027Y-145588219D01*
X180544825Y-145769778D01*
X180516996Y-146019208D01*
X180548039Y-146178400D01*
X180665947Y-146322619D01*
X180792358Y-146435282D01*
X181011616Y-146600664D01*
X181324031Y-146806501D01*
X181672285Y-147015584D01*
X181776372Y-147074036D01*
X182081695Y-147254301D01*
X182326870Y-147421420D01*
X182475030Y-147549256D01*
X182500339Y-147587326D01*
X182585448Y-147722925D01*
X182752553Y-147919244D01*
X182883142Y-148052993D01*
X183068284Y-148243207D01*
X183190119Y-148388722D01*
X183218591Y-148441834D01*
X183150168Y-148493421D01*
X182996816Y-148502925D01*
X182836674Y-148473900D01*
X182753000Y-148420667D01*
X182636226Y-148354993D01*
X182495139Y-148336000D01*
X182325161Y-148286531D01*
X182198531Y-148113586D01*
X182169918Y-148049547D01*
X182018207Y-147816580D01*
X181744177Y-147564646D01*
X181335423Y-147284349D01*
X180779538Y-146966291D01*
X180646928Y-146895911D01*
X180347089Y-146734162D01*
X180167706Y-146616556D01*
X180077934Y-146511200D01*
X180046926Y-146386203D01*
X180043667Y-146272197D01*
X180038932Y-146072016D01*
X180027243Y-145968998D01*
X180024221Y-145965278D01*
X179964418Y-146037338D01*
X179873670Y-146219046D01*
X179773376Y-146459009D01*
X179684940Y-146705835D01*
X179629761Y-146908134D01*
X179628273Y-146916081D01*
X179555819Y-147370226D01*
X179502255Y-147815309D01*
X179470282Y-148214597D01*
X179462599Y-148531360D01*
X179481905Y-148728868D01*
X179492859Y-148758448D01*
X179627786Y-148879405D01*
X179834604Y-148958821D01*
X180000328Y-149017812D01*
X180047395Y-149090819D01*
X180044281Y-149097006D01*
X179932004Y-149147396D01*
X179715724Y-149170433D01*
X179458906Y-149163805D01*
X179230413Y-149126662D01*
X179063630Y-149037901D01*
X178971587Y-148867399D01*
X178951327Y-148594194D01*
X178999891Y-148197322D01*
X179057955Y-147904395D01*
X179147766Y-147456325D01*
X179233105Y-146974909D01*
X179298718Y-146547601D01*
X179310886Y-146454361D01*
X179363841Y-146097411D01*
X179431640Y-145848974D01*
X179537642Y-145648445D01*
X179702508Y-145438361D01*
X179873402Y-145233088D01*
X179942031Y-145121107D01*
X179919227Y-145069682D01*
X179831511Y-145048430D01*
X179699614Y-144983696D01*
X179693445Y-144906581D01*
X179664530Y-144829582D01*
X179517320Y-144820017D01*
X179288703Y-144877550D01*
X179202077Y-144911037D01*
X179048662Y-144929668D01*
X179004522Y-144879899D01*
X178902511Y-144788540D01*
X178851278Y-144780000D01*
X178743210Y-144731959D01*
X178731333Y-144695334D01*
X178660896Y-144625115D01*
X178572327Y-144610667D01*
X178407938Y-144545868D01*
X178280551Y-144420167D01*
X178194921Y-144303931D01*
X178175875Y-144316416D01*
X178213686Y-144473549D01*
X178224169Y-144512464D01*
X178263461Y-144698884D01*
X178236696Y-144760426D01*
X178180146Y-144749055D01*
X178103107Y-144751605D01*
X178094176Y-144867982D01*
X178111397Y-144974258D01*
X178163059Y-145245667D01*
X177946400Y-145047177D01*
X177729742Y-144848686D01*
X177810300Y-145207223D01*
X177862605Y-145504641D01*
X177849273Y-145650066D01*
X177767786Y-145648630D01*
X177647125Y-145540161D01*
X177522810Y-145430673D01*
X177462428Y-145424521D01*
X177461333Y-145433403D01*
X177411304Y-145481446D01*
X177251144Y-145428201D01*
X177032406Y-145239742D01*
X176907398Y-144941315D01*
X176869158Y-144559095D01*
X176910723Y-144119256D01*
X177025133Y-143647974D01*
X177205424Y-143171424D01*
X177444635Y-142715779D01*
X177735805Y-142307216D01*
X178071970Y-141971909D01*
X178195048Y-141879403D01*
X178554447Y-141645269D01*
X178874397Y-141478615D01*
X179197265Y-141368420D01*
X179565413Y-141303663D01*
X180021207Y-141273323D01*
X180551667Y-141266334D01*
X181101987Y-141272642D01*
X181529744Y-141300442D01*
X181881512Y-141363042D01*
X182203864Y-141473755D01*
X182543373Y-141645889D01*
X182946612Y-141892757D01*
X183107650Y-141996825D01*
X183465924Y-142205099D01*
X183735028Y-142294079D01*
X183944216Y-142265511D01*
X184122741Y-142121136D01*
X184171198Y-142060223D01*
X184240266Y-141945962D01*
X184288597Y-141799288D01*
X184320559Y-141588051D01*
X184340524Y-141280101D01*
X184352862Y-140843287D01*
X184355344Y-140705556D01*
X184368795Y-140198000D01*
X184392898Y-139819494D01*
X184432686Y-139529848D01*
X184493189Y-139288873D01*
X184553961Y-139118999D01*
X184746974Y-138700284D01*
X184940336Y-138445907D01*
X185151786Y-138351768D01*
X185399060Y-138413768D01*
G37*
%TO.C,J1*%
X64671000Y-129686000D02*
X64671000Y-128885000D01*
X64671000Y-147466000D02*
X64671000Y-146665000D01*
X64671000Y-99206000D02*
X64671000Y-98405000D01*
X65671000Y-158766000D02*
X65671000Y-153246000D01*
X64671000Y-149781000D02*
X64671000Y-149205000D01*
X64671000Y-119526000D02*
X64671000Y-118725000D01*
X64671000Y-73806000D02*
X64671000Y-73005000D01*
X64671000Y-83966000D02*
X64671000Y-83165000D01*
X64671000Y-78886000D02*
X64671000Y-78085000D01*
X64671000Y-122066000D02*
X64671000Y-121265000D01*
X64671000Y-111906000D02*
X64671000Y-111105000D01*
X64671000Y-153247000D02*
X64671000Y-151971000D01*
X64671000Y-127146000D02*
X64671000Y-126345000D01*
X64671000Y-139846000D02*
X64671000Y-139045000D01*
X64671000Y-106826000D02*
X64671000Y-106025000D01*
X64671000Y-101746000D02*
X64671000Y-100945000D01*
X60111000Y-64246000D02*
X65671000Y-64246000D01*
X65671000Y-64246000D02*
X65671000Y-69766000D01*
X64671000Y-114446000D02*
X64671000Y-113645000D01*
X64671000Y-76346000D02*
X64671000Y-75545000D01*
X64671000Y-86506000D02*
X64671000Y-85705000D01*
X64671000Y-71266000D02*
X64671000Y-69766000D01*
X64671000Y-142386000D02*
X64671000Y-141585000D01*
X64671000Y-144926000D02*
X64671000Y-144125000D01*
X65111000Y-152571000D02*
X65711000Y-152571000D01*
X64671000Y-96666000D02*
X64671000Y-95865000D01*
X64671000Y-132226000D02*
X64671000Y-131425000D01*
X65671000Y-69766000D02*
X64671000Y-69766000D01*
X64671000Y-137306000D02*
X64671000Y-136505000D01*
X64671000Y-109366000D02*
X64671000Y-108565000D01*
X64671000Y-94126000D02*
X64671000Y-93325000D01*
X64671000Y-134766000D02*
X64671000Y-133965000D01*
X64671000Y-116986000D02*
X64671000Y-116185000D01*
X65411000Y-151971000D02*
X65111000Y-152571000D01*
X65671000Y-153246000D02*
X64671000Y-153246000D01*
X65711000Y-152571000D02*
X65411000Y-151971000D01*
X64671000Y-124606000D02*
X64671000Y-123805000D01*
X64671000Y-81426000D02*
X64671000Y-80625000D01*
X64671000Y-104286000D02*
X64671000Y-103485000D01*
X64671000Y-91586000D02*
X64671000Y-90785000D01*
X60111000Y-158766000D02*
X65671000Y-158766000D01*
X64671000Y-89046000D02*
X64671000Y-88245000D01*
%TD*%
M02*
